<?xml version="1.0" encoding="UTF-8" standalone="no"?><!DOCTYPE svg PUBLIC "-//W3C//DTD SVG 1.1//EN" "http://www.w3.org/Graphics/SVG/1.1/DTD/svg11.dtd"><svg width="100%" height="100%" viewBox="0 0 175 175" version="1.1" xmlns="http://www.w3.org/2000/svg" xmlns:xlink="http://www.w3.org/1999/xlink" xml:space="preserve" xmlns:serif="http://www.serif.com/" style="fill-rule:evenodd;clip-rule:evenodd;stroke-linejoin:round;stroke-miterlimit:2;"><g><path d="M175,36.983c0,-20.411 -16.572,-36.983 -36.983,-36.983l-101.034,0c-20.411,0 -36.983,16.572 -36.983,36.983l0,101.034c0,20.411 16.572,36.983 36.983,36.983l101.034,0c20.411,0 36.983,-16.572 36.983,-36.983l0,-101.034Z" style="fill:url(#_Linear1);"/><path d="M147.849,25.007c-0.109,0.005 -0.218,0.019 -0.325,0.042c-11.502,0.054 -22.096,2.433 -31.714,6.454c-0.055,0.02 -0.109,0.042 -0.163,0.066c-0.089,0.042 -0.187,0.059 -0.276,0.096c-0.179,0.076 -0.346,0.177 -0.497,0.3c-0.788,0.371 -1.654,0.819 -2.58,1.326c-0.055,0.023 -0.109,0.048 -0.162,0.075c-0.1,0.05 -0.193,0.113 -0.293,0.163c-0.402,0.221 -0.635,0.337 -1.018,0.553c-13.56,7.138 -24.997,17.191 -34.22,28.475c-1.772,-0.741 -3.593,-1.298 -5.477,-1.53c-7.028,-0.866 -14.672,1.676 -21.777,6.649c-9.474,6.631 -18.243,17.637 -24.178,31.527c-0.11,0.258 -0.167,0.536 -0.167,0.816c0,1.143 0.941,2.084 2.084,2.084c0.46,0 0.908,-0.153 1.273,-0.435c8.598,-6.669 15.284,-10.264 19.962,-11.108c2.34,-0.422 4.124,-0.204 5.616,0.505c1.286,0.61 2.418,1.655 3.45,3.214c-0.268,0.623 -0.599,1.252 -0.854,1.872c-0.321,0.778 -0.141,1.677 0.455,2.27l4.476,4.477c-3.886,5.856 -7.888,12.522 -12.215,19.995c-0.007,0 -0.017,-0.001 -0.024,0.041c-0.017,0.029 -0.034,0.058 -0.049,0.088c-0.009,0.019 -0.017,0.039 -0.025,0.058c-0.005,0.014 -0.011,0.028 -0.016,0.042c-0.024,0.053 -0.046,0.107 -0.065,0.162c-0.006,0.014 -0.011,0.028 -0.016,0.042c-0.016,0.051 -0.03,0.102 -0.041,0.154c-0.017,0.067 -0.031,0.136 -0.041,0.204c-0.007,0.04 -0.012,0.081 -0.016,0.121c-0.004,0.028 -0.006,0.056 -0.008,0.083c0,0.017 0,0.034 0,0.05c-0.001,0.071 0.001,0.142 0.008,0.213c0.003,0.054 0.008,0.108 0.016,0.162c0.002,0.014 0.005,0.028 0.008,0.042c0.013,0.069 0.029,0.137 0.049,0.204c0.018,0.064 0.04,0.126 0.065,0.188c0.019,0.052 0.041,0.103 0.065,0.154c0.027,0.058 0.057,0.115 0.089,0.171c0.003,0 0.006,0 0.009,0c0.008,0.014 0.016,0.028 0.024,0.041c0.031,0.045 0.064,0.088 0.098,0.13c0.008,0.014 0.016,0.027 0.025,0.041c0.036,0.045 0.074,0.088 0.113,0.129c0.035,0.035 0.07,0.068 0.106,0.1c0.014,0.017 0.027,0.034 0.041,0.05c0.011,0.014 0.022,0.028 0.033,0.042c0.042,0.034 0.085,0.066 0.13,0.096c0.01,0.014 0.021,0.028 0.032,0.042c0.048,0.034 0.097,0.066 0.147,0.095c0.061,0.035 0.123,0.067 0.187,0.096c0.032,0.015 0.065,0.029 0.098,0.042c0.029,0.015 0.059,0.028 0.089,0.042c0.014,0 0.027,0 0.041,0c0.054,0.016 0.108,0.03 0.163,0.041c0.048,0.016 0.097,0.03 0.146,0.042c0.033,0.001 0.065,0.001 0.098,0c0.057,0.002 0.114,0.002 0.171,0c0.011,0 0.021,0 0.032,0c0.14,0 0.279,-0.014 0.415,-0.042c0.066,-0.013 0.131,-0.03 0.196,-0.05c0.069,-0.021 0.137,-0.046 0.203,-0.075c0.078,-0.033 0.154,-0.07 0.228,-0.112c0.048,-0.042 0.082,-0.054 0.13,-0.084c7.434,-4.313 14.076,-8.307 19.914,-12.182l4.321,4.321c0.594,0.596 1.493,0.777 2.271,0.456c0.608,-0.25 1.228,-0.576 1.839,-0.838c3.35,2.194 4.544,4.758 3.8,9.123c-0.804,4.723 -4.346,11.443 -11.01,20.035c-0.282,0.365 -0.435,0.813 -0.435,1.274c0,1.143 0.941,2.083 2.084,2.083c0.281,0 0.558,-0.057 0.816,-0.167c13.89,-5.935 24.896,-14.704 31.527,-24.178c6.328,-9.041 8.641,-18.94 5.086,-27.344c11.217,-9.07 21.251,-20.283 28.394,-33.569c0.29,-0.507 0.467,-0.844 0.781,-1.391c0.656,-1.143 1.23,-2.213 1.701,-3.207c0.07,-0.105 0.13,-0.217 0.179,-0.333c0.003,0 0.005,0 0.008,-0.042c0.035,-0.079 0.107,-0.183 0.139,-0.258c0.066,-0.156 0.112,-0.32 0.138,-0.488c3.99,-9.678 6.242,-20.444 6.242,-31.96c0,-1.143 -0.941,-2.083 -2.084,-2.083l-0.065,0l0,0.017Zm-2.246,4.403c-0.255,9.072 -2.002,17.551 -4.899,25.366l-20.345,-20.337c7.806,-2.931 16.191,-4.76 25.244,-5.029Zm-29.769,6.771l23.161,23.209c-0.184,0.358 -0.404,0.756 -0.61,1.139c-0.003,0 -0.006,0 -0.008,0c-0.072,0.097 -0.134,0.201 -0.188,0.309c-0.356,0.703 -0.757,1.375 -1.131,2.067c-0.399,0.697 -0.855,1.474 -1.131,2.018c-0.041,0.082 -0.076,0.167 -0.106,0.254c-13.34,23.114 -36.147,39.641 -57.495,48.69l-2.726,-2.726c3.493,-2.45 6.749,-4.878 9.448,-7.308c7.828,-7.047 12.268,-14.54 11.279,-23.087c-0.016,-0.153 -0.048,-0.303 -0.097,-0.448l-0.041,-0.096c-0.159,-0.458 -0.473,-0.847 -0.887,-1.099l-0.163,-0.096c-0.255,-0.156 -0.541,-0.256 -0.838,-0.291l0,-0.042c-8.548,-0.989 -16.054,3.454 -23.104,11.279c-2.436,2.704 -4.869,5.964 -7.324,9.465l-2.881,-2.881c9.04,-21.311 25.529,-43.762 48.625,-57.072c0.092,-0.031 0.182,-0.069 0.269,-0.112c1.54,-0.782 4.16,-2.252 5.948,-3.174l0,0.002Zm-5.265,17.968c-2.641,0 -5.289,1.001 -7.291,3.003c-4.005,4.004 -3.996,10.563 0.008,14.567c4.004,4.004 10.555,4.004 14.559,0c4.004,-4.004 4.012,-10.563 0.008,-14.567c-2.002,-2.002 -4.642,-3.003 -7.284,-3.003Zm0,4.142c1.567,0 3.132,0.601 4.338,1.807c2.411,2.412 2.403,6.264 -0.009,8.675c-2.411,2.412 -6.255,2.412 -8.667,0c-2.411,-2.411 -2.419,-6.263 -0.008,-8.675c1.206,-1.206 2.779,-1.807 4.346,-1.807l0,0Zm-43.693,6.885c2.276,0.042 4.41,0.641 6.519,1.302c-0.682,0.929 -1.341,1.908 -2.01,2.865c-0.052,0.071 -0.096,0.146 -0.147,0.221c-1.627,2.337 -3.221,4.744 -4.752,7.259c-1.291,2.09 -2.47,4.187 -3.622,6.299c-0.203,0.379 -0.41,0.741 -0.61,1.123c-1.129,2.117 -2.184,4.222 -3.174,6.339c-1.067,-1.181 -1.966,-2.622 -3.353,-3.279c-2.39,-1.134 -5.17,-1.375 -8.146,-0.838c-4.049,0.73 -8.857,3.31 -14.12,6.721c5.269,-9.342 11.482,-17.343 18.27,-22.094c4.341,-3.038 8.691,-4.975 12.818,-5.721c0.794,-0.142 1.569,-0.204 2.327,-0.196l0,-0.001Zm24.927,18.034c-0.053,6.037 -2.958,11.566 -9.546,17.497c-5.91,5.32 -14.815,10.977 -25.041,17.081c6.1,-10.231 11.751,-19.141 17.074,-25.048c5.936,-6.588 11.471,-9.481 17.513,-9.53Zm16.732,18.368c2.043,6.472 0.773,13.999 -4.615,21.695c-4.758,6.799 -12.78,13.023 -22.143,18.295c3.414,-5.304 5.984,-10.157 6.681,-14.25c0.805,-4.726 -1.095,-8.533 -4.223,-11.507c2.188,-1.019 4.366,-2.105 6.559,-3.271c0.108,-0.059 0.209,-0.117 0.317,-0.171c1.933,-1.036 3.866,-2.04 5.786,-3.19c4.111,-2.399 7.986,-4.942 11.638,-7.601l0,0Zm-55.111,10.123l-16.252,16.26l1.97,1.977l8.618,-8.617c1.942,-3.35 3.826,-6.57 5.664,-9.62Zm9.725,10.018c-3.052,1.841 -6.27,3.727 -9.619,5.672l-10.441,10.442l1.977,1.969l18.083,-18.083Zm-15.902,4.061l-12.052,12.053l1.977,1.969l12.053,-12.052c-0.052,0 -0.105,-0.042 -0.155,-0.067c-0.016,-0.014 -0.033,-0.028 -0.049,-0.042c-0.066,-0.041 -0.131,-0.079 -0.195,-0.12l0.025,0.041c-0.078,-0.046 -0.154,-0.1 -0.228,-0.154c-0.09,-0.062 -0.177,-0.133 -0.261,-0.204c-0.016,-0.017 -0.033,-0.033 -0.049,-0.05c-0.033,-0.028 -0.066,-0.057 -0.097,-0.088l-0.033,0c-0.008,-0.013 -0.016,-0.027 -0.024,-0.041c-0.029,-0.042 -0.061,-0.042 -0.09,-0.084c-0.011,-0.016 -0.022,-0.033 -0.032,-0.05c-0.035,-0.041 -0.072,-0.054 -0.106,-0.095c-0.062,-0.067 -0.122,-0.134 -0.179,-0.205c-0.006,-0.016 -0.011,-0.033 -0.016,-0.05c-0.074,-0.091 -0.131,-0.191 -0.196,-0.291c-0.099,-0.124 -0.183,-0.258 -0.252,-0.4c-0.012,-0.042 -0.029,-0.05 -0.041,-0.071l0,0.001Zm-12.052,4.158l-1.978,1.97l1.978,1.978l1.969,-1.978l-1.969,-1.97Zm-1.978,9.864l-1.969,1.977l1.969,1.97l1.978,-1.97l-1.978,-1.977Zm7.894,0l-1.969,1.977l1.969,1.97l1.978,-1.97l-1.978,-1.977Z" style="fill:#fff;"/></g><defs><linearGradient id="_Linear1" x1="0" y1="0" x2="1" y2="0" gradientUnits="userSpaceOnUse" gradientTransform="matrix(146.528,161.77,-161.77,146.528,41.4866,33.3361)"><stop offset="0" style="stop-color:#087ef4;stop-opacity:1"/><stop offset="1" style="stop-color:#004992;stop-opacity:1"/></linearGradient></defs></svg>